{"title":"Hansel.and.Gretel.Warriors.of.Witchcraft.2013.480p.BDRip.XviD.AC","uid":8425664,"size":1236386722,"categoryP":"video","categoryS":"movies","magnet":"?xt=urn:btih:69055ccc1b5c3ec4f18e2c5105b07ba00248acc9&amp;dn=Hansel.and.Gretel.Warriors.of.Witchcraft.2013.480p.BDRip.XviD.AC&amp;tr=udp%3A%2F%2Ftracker.openbittorrent.com%3A80&amp;tr=udp%3A%2F%2Fopen.demonii.com%3A1337&amp;tr=udp%3A%2F%2Ftracker.coppersurfer.tk%3A6969&amp;tr=udp%3A%2F%2Fexodus.desync.com%3A6969","seeders":0,"leechers":0,"uploader":"xxxlavalxxx","files":-1,"time":1367338780,"description":" &lt;a href=&quot;\nhttp://www.imdb.com/title/tt2381962/&quot; rel=&quot;nofollow&quot; target=&quot;_NEW&quot;&gt;\nhttp://www.imdb.com/title/tt2381962/&lt;/a&gt;\n\n\nPlot: Twins discover a coven of witches. The brother is recruited to join while the sister uncovers their heritage as witch slayers. When the brother is supposed to sacrifice his sister they instead team up to destroy the Witch of the Woods. \n\n\n\nDirector:\n David DeCoteau \n\nWriter:\n Larson Tretter \n\nStars:\n Fivel Stewart, Booboo Stewart, Eric Roberts\n\nGenres:\n  Action |  Adventure |  Horror |  Thriller \n\nCountry:\n USA \n\nLanguage:\n English \n\n &lt;a href=&quot;\nhttp://www.shotpix.com/images/29783420037214742916.png&quot; rel=&quot;nofollow&quot; target=&quot;_NEW&quot;&gt;\nhttp://www.shotpix.com/images/29783420037214742916.png&lt;/a&gt;\n\n\n\n\nFormat                                   : AVI\nFormat/Info                              : Audio Video Interleave\nFormat profile                           : OpenDML\nFormat settings                          : rec\nFile size                                : 1.15 GiB\nDuration                                 : 1h 23mn\nOverall bit rate                         : 1 979 Kbps\nWriting application                      : AVI-Mux GUI 1.17.8.3, Feb 16 201019:42:50\n\nVideo\nID                                       : 0\nFormat                                   : MPEG-4 Visual\nFormat profile                           : Advanced Simple@L5\nFormat settings, BVOP                    : 2\nFormat settings, QPel                    : No\nFormat settings, GMC                     : No warppoints\nFormat settings, Matrix                  : Default (H.263)\nMuxing mode                              : Packed bitstream\nCodec ID                                 : XVID\nCodec ID/Hint                            : XviD\nDuration                                 : 1h 23mn\nBit rate                                 : 1 526 Kbps\nWidth                                    : 720 pixels\nHeight                                   : 400 pixels\nDisplay aspect ratio                     : 16:9\nFrame rate                               : 23.976 fps\nColor space                              : YUV\nChroma subsampling                       : 4:2:0\nBit depth                                : 8 bits\nScan type                                : Progressive\nCompression mode                         : Lossy\nBits/(Pixel*Frame)                       : 0.221\nStream size                              : 909 MiB (77%)\nWriting library                          : XviD 64\n\nAudio\nID                                       : 1\nFormat                                   : AC-3\nFormat/Info                              : Audio Coding 3\nMode extension                           : CM (complete main)\nFormat settings, Endianness              : Big\nCodec ID                                 : 2000\nDuration                                 : 1h 23mn\nBit rate mode                            : Constant\nBit rate                                 : 448 Kbps\nChannel(s)                               : 6 channels\nChannel positions                        : Front: L C R, Side: L R, LFE\nSampling rate                            : 48.0 KHz\nBit depth                                : 16 bits\nCompression mode                         : Lossy\nStream size                              : 267 MiB (23%)\nAlignment                                : Aligned on interleaves\nInterleave, duration                     : 64 ms (1.53 video frames)\nInterleave, preload duration             : 192 ms\nTitle                                    : T3_Audio - \n\n\n\n\n    &lt;a href=&quot;\thttp://www.shotpix.com/images/32475553047113969335.png&quot; rel=&quot;nofollow&quot; target=&quot;_NEW&quot;&gt;\thttp://www.shotpix.com/images/32475553047113969335.png&lt;/a&gt;\n    &lt;a href=&quot;\thttp://www.shotpix.com/images/64630659867985465842.png&quot; rel=&quot;nofollow&quot; target=&quot;_NEW&quot;&gt;\thttp://www.shotpix.com/images/64630659867985465842.png&lt;/a&gt;\n    &lt;a href=&quot;\thttp://www.shotpix.com/images/01389597864681688890.png&quot; rel=&quot;nofollow&quot; target=&quot;_NEW&quot;&gt;\thttp://www.shotpix.com/images/01389597864681688890.png&lt;/a&gt;\n    &lt;a href=&quot;\thttp://www.shotpix.com/images/16189215093273992742.png&quot; rel=&quot;nofollow&quot; target=&quot;_NEW&quot;&gt;\thttp://www.shotpix.com/images/16189215093273992742.png&lt;/a&gt;\n    &lt;a href=&quot;\thttp://www.shotpix.com/images/64004620225065821949.png&quot; rel=&quot;nofollow&quot; target=&quot;_NEW&quot;&gt;\thttp://www.shotpix.com/images/64004620225065821949.png&lt;/a&gt;","torrent":{"xt":"urn:btih:69055ccc1b5c3ec4f18e2c5105b07ba00248acc9","amp;dn":"Hansel.and.Gretel.Warriors.of.Witchcraft.2013.480p.BDRip.XviD.AC","amp;tr":["udp%3A%2F%2Ftracker.openbittorrent.com%3A80","udp%3A%2F%2Fopen.demonii.com%3A1337","udp%3A%2F%2Ftracker.coppersurfer.tk%3A6969","udp%3A%2F%2Fexodus.desync.com%3A6969"],"infoHash":"69055ccc1b5c3ec4f18e2c5105b07ba00248acc9","infoHashBuffer":{"type":"Buffer","data":[105,5,92,204,27,92,62,196,241,142,44,81,5,176,123,160,2,72,172,201]},"announce":[],"urlList":[]}}